<svg version="1.1" id="Layer_1" xmlns="http://www.w3.org/2000/svg" xmlns:xlink="http://www.w3.org/1999/xlink" x="0px" y="0px"
	 width="100%" viewBox="0 0 512 512" enable-background="new 0 0 512 512" xml:space="preserve">
<path fill="#00AAF0" opacity="1.000000" stroke="none" 
	d="
M513.000000,92.000000 
	C513.000000,201.687561 513.000000,311.375122 512.627686,421.712982 
	C509.402954,432.472626 507.546997,443.006073 503.466949,452.592926 
	C497.196991,467.325439 487.303772,479.834259 474.612976,489.772400 
	C465.259216,497.097351 455.443939,503.811676 443.760834,507.063721 
	C436.517609,509.079895 429.254272,511.023682 422.000000,513.000000 
	C367.312439,513.000000 312.624878,513.000000 257.468658,512.531372 
	C256.989929,462.101318 256.979858,412.139923 257.434265,362.104980 
	C290.703674,362.021088 323.514343,361.624603 356.312012,362.108368 
	C389.584229,362.599030 417.721039,334.545105 417.116760,300.984985 
	C416.538483,268.867218 390.026093,241.870239 357.785675,242.119263 
	C350.417419,242.176163 343.060760,243.734573 335.367493,244.640961 
	C334.904175,242.946472 334.383881,240.712494 333.674835,238.540100 
	C332.904755,236.180634 332.092316,233.818176 331.070068,231.560364 
	C316.642273,199.694260 291.852386,183.232162 256.976990,181.364609 
	C256.989166,120.938103 256.994568,60.969051 257.000000,1.000000 
	C311.687561,1.000000 366.375122,1.000000 421.712952,1.372328 
	C432.472565,4.597029 443.005981,6.453030 452.592865,10.533061 
	C467.325409,16.802998 479.834229,26.696215 489.772400,39.387016 
	C497.097321,48.740780 503.811676,58.556057 507.063721,70.239166 
	C509.079895,77.482361 511.023682,84.745705 513.000000,92.000000 
z"/>
<path fill="#00C3FF" opacity="1.000000" stroke="none" 
	d="
M256.531342,1.000000 
	C256.994568,60.969051 256.989166,120.938103 256.979004,181.454376 
	C256.974243,182.001602 257.030273,182.172226 256.583496,182.109467 
	C251.228638,182.398254 246.320602,182.749817 241.297470,182.724762 
	C227.214706,147.060913 189.898972,126.437859 152.481140,133.326202 
	C114.998718,140.226425 87.453934,173.019241 87.014984,211.265442 
	C86.579681,249.194473 113.193260,282.235535 150.449081,290.519714 
	C149.905167,291.581604 149.507004,292.311584 149.064026,293.013306 
	C131.597092,320.683350 148.536026,358.250458 181.121490,360.970825 
	C206.272888,363.070557 231.716293,361.672089 257.001770,361.914124 
	C256.973694,361.999298 256.969788,362.178558 256.969788,362.178558 
	C256.979858,412.139923 256.989929,462.101318 257.000000,512.531372 
	C202.312439,513.000000 147.624878,513.000000 92.283852,512.629700 
	C81.943817,509.570099 71.894325,507.768646 62.652702,503.990875 
	C47.427338,497.767151 34.641548,487.699432 24.362906,474.780243 
	C17.029129,465.562378 10.475352,455.771606 7.027874,444.333008 
	C4.803740,436.953400 2.994931,429.448669 1.000001,422.000000 
	C1.000000,312.312439 1.000000,202.624878 1.370298,92.283852 
	C4.429883,81.943810 6.231330,71.894310 10.009089,62.652679 
	C16.232849,47.427322 26.300552,34.641525 39.219765,24.362926 
	C48.437634,17.029139 58.228405,10.475327 69.667000,7.027850 
	C77.046585,4.803718 84.551338,2.994928 92.000000,0.999999 
	C146.687561,1.000000 201.375122,1.000000 256.531342,1.000000 
z"/>
<path fill="#FFFFFF" opacity="1.000000" stroke="none" 
	d="
M91.531342,0.999999 
	C84.551338,2.994928 77.046585,4.803718 69.667000,7.027850 
	C58.228405,10.475327 48.437634,17.029139 39.219765,24.362926 
	C26.300552,34.641525 16.232849,47.427322 10.009089,62.652679 
	C6.231330,71.894310 4.429883,81.943810 1.370298,91.815193 
	C1.000000,61.739750 1.000000,31.479496 1.000000,1.000000 
	C31.020538,1.000000 61.041611,1.000000 91.531342,0.999999 
z"/>
<path fill="#FFFFFF" opacity="1.000000" stroke="none" 
	d="
M513.000000,91.531342 
	C511.023682,84.745705 509.079895,77.482361 507.063721,70.239166 
	C503.811676,58.556057 497.097321,48.740780 489.772400,39.387016 
	C479.834229,26.696215 467.325409,16.802998 452.592865,10.533061 
	C443.005981,6.453030 432.472565,4.597029 422.181610,1.372328 
	C452.260254,1.000000 482.520508,1.000000 513.000000,1.000000 
	C513.000000,31.020538 513.000000,61.041611 513.000000,91.531342 
z"/>
<path fill="#FFFFFF" opacity="1.000000" stroke="none" 
	d="
M1.000001,422.468658 
	C2.994931,429.448669 4.803740,436.953400 7.027874,444.333008 
	C10.475352,455.771606 17.029129,465.562378 24.362906,474.780243 
	C34.641548,487.699432 47.427338,497.767151 62.652702,503.990875 
	C71.894325,507.768646 81.943817,509.570099 91.815193,512.629700 
	C61.739750,513.000000 31.479504,513.000000 1.000000,513.000000 
	C1.000000,482.979462 1.000000,452.958374 1.000001,422.468658 
z"/>
<path fill="#FFFFFF" opacity="1.000000" stroke="none" 
	d="
M422.468658,513.000000 
	C429.254272,511.023682 436.517609,509.079895 443.760834,507.063721 
	C455.443939,503.811676 465.259216,497.097351 474.612976,489.772400 
	C487.303772,479.834259 497.196991,467.325439 503.466949,452.592926 
	C507.546997,443.006073 509.402954,432.472626 512.627686,422.181641 
	C513.000000,452.260254 513.000000,482.520508 513.000000,513.000000 
	C482.979462,513.000000 452.958374,513.000000 422.468658,513.000000 
z"/>
<path fill="#F2F2F2" opacity="1.000000" stroke="none" 
	d="
M256.972229,181.911835 
	C291.852386,183.232162 316.642273,199.694260 331.070068,231.560364 
	C332.092316,233.818176 332.904755,236.180634 333.674835,238.540100 
	C334.383881,240.712494 334.904175,242.946472 335.367493,244.640961 
	C343.060760,243.734573 350.417419,242.176163 357.785675,242.119263 
	C390.026093,241.870239 416.538483,268.867218 417.116760,300.984985 
	C417.721039,334.545105 389.584229,362.599030 356.312012,362.108368 
	C323.514343,361.624603 290.703674,362.021088 257.434265,362.104980 
	C256.969788,362.178558 256.973694,361.999298 256.997131,361.456390 
	C257.023804,301.333069 257.027039,241.752640 257.030273,182.172226 
	C257.030273,182.172226 256.974243,182.001602 256.972229,181.911835 
z"/>
<path fill="#FFFFFF" opacity="1.000000" stroke="none" 
	d="
M256.583496,182.109467 
	C257.027039,241.752640 257.023804,301.333069 257.025208,361.371216 
	C231.716293,361.672089 206.272888,363.070557 181.121490,360.970825 
	C148.536026,358.250458 131.597092,320.683350 149.064026,293.013306 
	C149.507004,292.311584 149.905167,291.581604 150.670441,290.307129 
	C157.308304,282.399445 164.733322,276.675079 174.203445,274.088440 
	C177.319412,273.237335 177.708435,271.542572 177.495804,268.578156 
	C175.452942,240.099869 185.929947,217.032990 207.883774,198.964630 
	C217.748764,190.845581 229.425461,186.673874 241.412552,183.101379 
	C246.320602,182.749817 251.228638,182.398254 256.583496,182.109467 
z"/>
<path fill="#FEEA85" opacity="1.000000" stroke="none" 
	d="
M241.297470,182.724762 
	C229.425461,186.673874 217.748764,190.845581 207.883774,198.964630 
	C185.929947,217.032990 175.452942,240.099869 177.495804,268.578156 
	C177.708435,271.542572 177.319412,273.237335 174.203445,274.088440 
	C164.733322,276.675079 157.308304,282.399445 150.795288,289.962036 
	C113.193260,282.235535 86.579681,249.194473 87.014984,211.265442 
	C87.453934,173.019241 114.998718,140.226425 152.481140,133.326202 
	C189.898972,126.437859 227.214706,147.060913 241.297470,182.724762 
z"/>
</svg>